<svg version="1.1" id="Layer_1" xmlns:x="ns_extend;" xmlns:i="ns_ai;" xmlns:graph="ns_graphs;" xmlns="http://www.w3.org/2000/svg" xmlns:xlink="http://www.w3.org/1999/xlink" x="0px" y="0px" viewBox="0 0 218 52" style="enable-background:new 0 0 218 52;" xml:space="preserve">
 <style type="text/css">
  .st0{fill:#111111;}
 </style>
 <metadata>
  <sfw xmlns="ns_sfw;">
   <slices>
   </slices>
   <sliceSourceBounds bottomLeftOrigin="true" height="52" width="218" x="91.8" y="-226.2">
   </sliceSourceBounds>
  </sfw>
 </metadata>
 <g>
  <path class="st0" d="M206.9,25.6c5-3.9,7.2-7.9,6.8-13c-0.3-7.2-6.3-12.8-13.4-12.7h-19.8v43.6h7.9V25.6h9.4l11.1,17.9h9.2
		L206.9,25.6z M206.1,12.7c0.1,2.8-2,5.2-4.8,5.3c0,0,0,0,0,0c-0.3,0-0.6,0-1,0h-11.9V7.6h11.9c2.9-0.3,5.4,1.7,5.8,4.6
		C206.1,12.4,206.1,12.5,206.1,12.7z M120.6,27.3l10.1,16.3h9.4l-14.4-23.1L120.6,27.3z M137.2,0h-10l-20.6,27.5V0h-7.8v39.7
		c0,1.9,1.3,3.5,3.1,3.8c1.4,0.2,2.9-0.3,3.8-1.4L137.2,0z M154.7,25.6h15.5V18h-15.5V25.6z">
  </path>
  <path class="st0" d="M174.3,0h-30.8v39.7c-0.1,2.1,1.6,3.8,3.7,3.9c0,0,0.1,0,0.1,0h27.1V36h-22.8V7.6h22.8V0z M83,0v27.5L62.4,0
		H52.3v43.5h7.9V10.4L83.9,42c0.9,1.1,2.3,1.7,3.8,1.4c1.8-0.3,3.1-2,3.1-3.8V0H83z M20.3,2.4L0,43.6h8.8L24,12.7l15.2,30.9H48
		L27.9,2.5c-0.4-0.7-0.9-1.4-1.6-1.8C25.6,0.3,24.8,0,24,0c-0.8,0-1.5,0.2-2.2,0.6C21.1,1,20.6,1.6,20.3,2.4z">
  </path>
  <path class="st0" d="M31.2,37.4h-5.3l1-11.2L15.5,40.8h5.3l-1,11.2l11.2-14.8L31.2,37.4z">
  </path>
 </g>
</svg>