<svg class="w-[11rem] ml-[1.2rem] -mt-[1rem]" data-name="\u56FE\u5C42 2" fill="currentColor" id="logo_svg___\u56FE\u5C42_2" viewBox="0 0 11.6 2.4" xmlns="http://www.w3.org/2000/svg"><defs><style>.logo_svg__cls-logo-1{fill-rule:evenodd}</style></defs><g data-name="\u56FE\u5C42 1" id="logo_svg___\u56FE\u5C42_1-2"><path class="logo_svg__cls-logo-1" d="M3.2.8c.05 0 .1 0 .15.02.07-.12.16-.24.27-.33a1.003 1.003 0 0 0-1.42.91v.99h.4V1.4c0-.33.27-.6.6-.6M5.8 0c.22 0 .4.18.4.4s-.18.4-.4.4-.4-.18-.4-.4.18-.4.4-.4M5.8.98A.6.6 0 0 1 5.5.9l.3 1.5.3-1.5a.6.6 0 0 1-.3.08M1 .4c.55 0 1 .45 1 1s-.45 1-1 1-1-.45-1-1 .45-1 1-1m0 .4c-.33 0-.6.27-.6.6s.27.6.6.6.6-.27.6-.6S1.33.8 1 .8M4.4.4c.55 0 1 .45 1 1v1H5v-.2a1.003 1.003 0 0 1-1.6-.8c0-.55.45-1 1-1m0 .4c-.33 0-.6.27-.6.6s.27.6.6.6.6-.27.6-.6-.27-.6-.6-.6M10.6.4c.55 0 1 .45 1 1s-.45 1-1 1-1-.45-1-1 .45-1 1-1m0 .4c-.33 0-.6.27-.6.6s.27.6.6.6.6-.27.6-.6-.27-.6-.6-.6M7.2.4c.22 0 .43.07.6.2a1.003 1.003 0 0 1 1.6.8v1H9v-1a.602.602 0 0 0-1-.45V2.4h-.4V.95a.602.602 0 0 0-1 .45v1h-.4v-1c0-.55.45-1 1-1"></path></g></svg>